<svg width="174" height="41" viewBox="0 0 174 41" fill="none" xmlns="http://www.w3.org/2000/svg">
<path d="M66.3483 20.2444C66.3483 22.1995 65.9681 23.8488 65.2078 25.1923C64.4474 26.53 63.4213 27.5448 62.1293 28.2365C60.8373 28.9225 59.3966 29.2655 57.8074 29.2655C56.2067 29.2655 54.7603 28.9196 53.4683 28.2279C52.182 27.5305 51.1587 26.5129 50.3984 25.1751C49.6438 23.8317 49.2665 22.1881 49.2665 20.2444C49.2665 18.2892 49.6438 16.6428 50.3984 15.3051C51.1587 13.9616 52.182 12.9469 53.4683 12.2609C54.7603 11.5691 56.2067 11.2233 57.8074 11.2233C59.3966 11.2233 60.8373 11.5691 62.1293 12.2609C63.4213 12.9469 64.4474 13.9616 65.2078 15.3051C65.9681 16.6428 66.3483 18.2892 66.3483 20.2444ZM61.4432 20.2444C61.4432 19.1925 61.3032 18.3064 61.0231 17.5861C60.7487 16.86 60.3399 16.3112 59.7968 15.9396C59.2594 15.5623 58.5963 15.3737 57.8074 15.3737C57.0184 15.3737 56.3524 15.5623 55.8093 15.9396C55.272 16.3112 54.8632 16.86 54.5831 17.5861C54.3087 18.3064 54.1715 19.1925 54.1715 20.2444C54.1715 21.2963 54.3087 22.1852 54.5831 22.9113C54.8632 23.6316 55.272 24.1804 55.8093 24.5577C56.3524 24.9293 57.0184 25.1151 57.8074 25.1151C58.5963 25.1151 59.2594 24.9293 59.7968 24.5577C60.3399 24.1804 60.7487 23.6316 61.0231 22.9113C61.3032 22.1852 61.4432 21.2963 61.4432 20.2444ZM74.9685 29.2655C73.5393 29.2655 72.3159 28.9825 71.2983 28.4166C70.2807 27.8449 69.5004 27.0502 68.9573 26.0327C68.4142 25.0093 68.1426 23.8231 68.1426 22.4739C68.1426 21.1248 68.4142 19.9414 68.9573 18.9238C69.5004 17.9005 70.2807 17.1059 71.2983 16.5399C72.3159 15.9682 73.5393 15.6824 74.9685 15.6824C76.2605 15.6824 77.3781 15.9168 78.3214 16.3855C79.2704 16.8486 80.005 17.506 80.5252 18.3578C81.0455 19.2039 81.3084 20.1987 81.3142 21.342H76.9236C76.8608 20.6503 76.6607 20.1243 76.3234 19.7642C75.9918 19.3983 75.563 19.2154 75.0371 19.2154C74.6255 19.2154 74.2653 19.3354 73.9566 19.5755C73.6479 19.8099 73.4078 20.1672 73.2363 20.6474C73.0648 21.1219 72.979 21.7193 72.979 22.4396C72.979 23.16 73.0648 23.7602 73.2363 24.2404C73.4078 24.7149 73.6479 25.0722 73.9566 25.3123C74.2653 25.5467 74.6255 25.6639 75.0371 25.6639C75.3858 25.6639 75.6945 25.5839 75.9632 25.4238C76.2319 25.258 76.4491 25.0179 76.6149 24.7035C76.7864 24.3834 76.8893 23.9946 76.9236 23.5373H81.3142C81.297 24.6978 81.0312 25.7097 80.5167 26.5729C80.0021 27.4304 79.2733 28.0936 78.33 28.5623C77.3924 29.0311 76.2719 29.2655 74.9685 29.2655ZM91.8081 23.2629V15.8539H96.5416V29.0254H92.0482V26.5214H91.911C91.6251 27.3618 91.1249 28.0192 90.4103 28.4937C89.6957 28.9625 88.8468 29.1969 87.8635 29.1969C86.9431 29.1969 86.137 28.9854 85.4453 28.5623C84.7592 28.1393 84.2247 27.5562 83.8417 26.813C83.4644 26.0698 83.2729 25.218 83.2672 24.2576V15.8539H88.0007V23.2629C88.0064 23.9146 88.1722 24.4262 88.498 24.7978C88.8296 25.1694 89.2927 25.3552 89.8872 25.3552C90.2817 25.3552 90.6218 25.2723 90.9077 25.1065C91.1992 24.935 91.4222 24.6949 91.5765 24.3862C91.7366 24.0718 91.8138 23.6973 91.8081 23.2629ZM98.9491 29.0254V15.8539H103.545V18.3578H103.683C103.923 17.4317 104.303 16.7543 104.823 16.3255C105.349 15.8968 105.964 15.6824 106.667 15.6824C106.873 15.6824 107.076 15.6995 107.276 15.7338C107.481 15.7624 107.679 15.8053 107.867 15.8625V19.9014C107.633 19.8213 107.344 19.7613 107.001 19.7213C106.658 19.6813 106.364 19.6613 106.118 19.6613C105.655 19.6613 105.238 19.767 104.866 19.9786C104.5 20.1844 104.211 20.4759 104 20.8532C103.788 21.2248 103.683 21.6622 103.683 22.1652V29.0254H98.9491ZM112.476 29.2312C111.636 29.2312 110.893 29.094 110.247 28.8196C109.607 28.5395 109.104 28.1164 108.738 27.5505C108.372 26.9845 108.189 26.2642 108.189 25.3895C108.189 24.6692 108.312 24.0546 108.558 23.5458C108.803 23.0313 109.146 22.6111 109.587 22.2853C110.027 21.9594 110.538 21.7108 111.122 21.5392C111.71 21.3677 112.345 21.2563 113.025 21.2048C113.763 21.1476 114.354 21.079 114.8 20.999C115.252 20.9133 115.578 20.7961 115.778 20.6474C115.978 20.4931 116.078 20.2901 116.078 20.0386V20.0043C116.078 19.6613 115.947 19.3983 115.684 19.2154C115.421 19.0324 115.083 18.941 114.672 18.941C114.22 18.941 113.851 19.041 113.566 19.2411C113.285 19.4355 113.117 19.7356 113.06 20.1415H108.703C108.761 19.3411 109.015 18.6037 109.467 17.9291C109.924 17.2488 110.59 16.7057 111.465 16.2998C112.339 15.8882 113.431 15.6824 114.74 15.6824C115.684 15.6824 116.53 15.7939 117.279 16.0168C118.027 16.2341 118.665 16.5399 119.191 16.9344C119.717 17.3231 120.117 17.7804 120.391 18.3064C120.672 18.8266 120.812 19.3926 120.812 20.0043V29.0254H116.387V27.1732H116.284C116.021 27.6648 115.701 28.0621 115.323 28.3651C114.952 28.6681 114.526 28.8882 114.046 29.0254C113.571 29.1626 113.048 29.2312 112.476 29.2312ZM114.02 26.247C114.38 26.247 114.717 26.1727 115.032 26.0241C115.352 25.8754 115.612 25.6611 115.812 25.3809C116.012 25.1008 116.112 24.7607 116.112 24.3605V23.2629C115.987 23.3143 115.852 23.3629 115.709 23.4086C115.572 23.4544 115.423 23.4973 115.263 23.5373C115.109 23.5773 114.943 23.6144 114.766 23.6487C114.595 23.6831 114.414 23.7145 114.226 23.7431C113.86 23.8002 113.56 23.8946 113.325 24.0261C113.097 24.1518 112.925 24.309 112.811 24.4977C112.702 24.6806 112.648 24.8864 112.648 25.1151C112.648 25.481 112.777 25.7611 113.034 25.9555C113.291 26.1499 113.62 26.247 114.02 26.247ZM129.899 29.2655C128.516 29.2655 127.287 29.0283 126.212 28.5538C125.143 28.0736 124.302 27.4133 123.691 26.5729C123.079 25.7325 122.77 24.7664 122.765 23.6745H127.567C127.572 24.0118 127.675 24.3148 127.875 24.5834C128.081 24.8464 128.361 25.0522 128.716 25.2009C129.07 25.3495 129.476 25.4238 129.933 25.4238C130.374 25.4238 130.762 25.3466 131.1 25.1923C131.437 25.0322 131.7 24.8121 131.889 24.532C132.077 24.2519 132.169 23.9317 132.163 23.5716C132.169 23.2171 132.06 22.9027 131.837 22.6283C131.62 22.3539 131.314 22.1395 130.92 21.9852C130.525 21.8308 130.071 21.7536 129.556 21.7536H127.772V18.4607H129.556C130.031 18.4607 130.448 18.3836 130.808 18.2292C131.174 18.0749 131.457 17.8605 131.657 17.5861C131.863 17.3117 131.963 16.9972 131.957 16.6428C131.963 16.2998 131.88 15.9968 131.709 15.7338C131.537 15.4709 131.297 15.2651 130.988 15.1164C130.685 14.9678 130.334 14.8935 129.933 14.8935C129.499 14.8935 129.11 14.9706 128.767 15.125C128.43 15.2793 128.164 15.4937 127.97 15.7681C127.775 16.0425 127.675 16.357 127.67 16.7114H123.108C123.113 15.6366 123.408 14.6877 123.991 13.8644C124.58 13.0412 125.386 12.3952 126.409 11.9264C127.432 11.4577 128.607 11.2233 129.933 11.2233C131.231 11.2233 132.377 11.4434 133.372 11.8836C134.373 12.3238 135.153 12.9297 135.713 13.7015C136.279 14.4676 136.559 15.3451 136.554 16.3341C136.565 17.3174 136.228 18.1235 135.542 18.7523C134.861 19.3812 133.998 19.7527 132.952 19.8671V20.0043C134.37 20.1586 135.436 20.5931 136.15 21.3077C136.865 22.0166 137.217 22.9084 137.205 23.9832C137.211 25.0122 136.902 25.924 136.279 26.7187C135.662 27.5133 134.801 28.1364 133.698 28.5881C132.6 29.0397 131.334 29.2655 129.899 29.2655ZM146.674 29.2655C145.651 29.2655 144.679 29.1054 143.759 28.7853C142.844 28.4594 142.032 27.9478 141.323 27.2503C140.615 26.5529 140.057 25.6439 139.651 24.5234C139.251 23.4029 139.054 22.0452 139.06 20.4502C139.065 19.0267 139.248 17.7461 139.608 16.6085C139.974 15.4709 140.492 14.5019 141.161 13.7015C141.835 12.9012 142.641 12.2895 143.579 11.8664C144.516 11.4377 145.56 11.2233 146.709 11.2233C148.001 11.2233 149.138 11.472 150.122 11.9693C151.105 12.4667 151.888 13.1327 152.471 13.9673C153.06 14.7963 153.403 15.711 153.5 16.7114H148.801C148.692 16.214 148.441 15.851 148.046 15.6224C147.658 15.388 147.212 15.2708 146.709 15.2708C145.708 15.2708 144.974 15.7052 144.505 16.5742C144.042 17.4432 143.805 18.5865 143.793 20.0043H143.896C144.119 19.4669 144.456 19.0067 144.908 18.6237C145.36 18.2407 145.885 17.9462 146.486 17.7404C147.086 17.5346 147.721 17.4317 148.389 17.4317C149.453 17.4317 150.382 17.6718 151.176 18.152C151.977 18.6323 152.6 19.2897 153.046 20.1243C153.492 20.959 153.712 21.9137 153.706 22.9885C153.712 24.2462 153.415 25.3466 152.814 26.2899C152.22 27.2332 151.394 27.9649 150.336 28.4852C149.278 29.0054 148.058 29.2655 146.674 29.2655ZM146.64 25.6639C147.115 25.6639 147.535 25.5553 147.901 25.3381C148.272 25.1208 148.561 24.8236 148.767 24.4462C148.978 24.0689 149.081 23.6402 149.075 23.16C149.081 22.674 148.978 22.2453 148.767 21.8737C148.561 21.4964 148.272 21.1991 147.901 20.9819C147.535 20.7646 147.115 20.656 146.64 20.656C146.291 20.656 145.968 20.7189 145.671 20.8447C145.38 20.9647 145.125 21.1391 144.908 21.3677C144.691 21.5907 144.519 21.8565 144.393 22.1652C144.273 22.4682 144.21 22.7998 144.205 23.16C144.21 23.6402 144.319 24.0689 144.531 24.4462C144.742 24.8236 145.031 25.1208 145.397 25.3381C145.763 25.5553 146.177 25.6639 146.64 25.6639ZM163.514 29.5056C161.919 29.4999 160.541 29.1312 159.381 28.3994C158.22 27.6677 157.326 26.6129 156.697 25.2352C156.068 23.8574 155.756 22.2053 155.762 20.2787C155.768 18.3464 156.082 16.7057 156.705 15.3565C157.334 14.0074 158.226 12.9812 159.381 12.278C160.541 11.5749 161.919 11.2233 163.514 11.2233C165.109 11.2233 166.487 11.5777 167.647 12.2866C168.808 12.9898 169.702 14.0159 170.331 15.3651C170.96 16.7143 171.272 18.3521 171.266 20.2787C171.266 22.2167 170.952 23.8746 170.323 25.2523C169.694 26.6301 168.799 27.6848 167.639 28.4166C166.484 29.1426 165.109 29.5056 163.514 29.5056ZM163.514 25.6296C164.337 25.6296 165.012 25.2009 165.538 24.3433C166.069 23.4801 166.332 22.1252 166.327 20.2787C166.327 19.0724 166.207 18.0863 165.966 17.3202C165.726 16.5542 165.395 15.9882 164.972 15.6224C164.549 15.2508 164.063 15.065 163.514 15.065C162.691 15.065 162.019 15.4823 161.499 16.3169C160.979 17.1516 160.713 18.4722 160.701 20.2787C160.696 21.5078 160.813 22.5197 161.053 23.3143C161.293 24.1032 161.625 24.6864 162.048 25.0637C162.476 25.441 162.965 25.6296 163.514 25.6296Z" fill="#80D1FF"/>
<path d="M16.584 23.0723L22.5459 29.0254L22.7334 29.2119H30.3662V35.875C30.3662 38.7053 28.0715 40.9998 25.2412 41H19.0908C16.2604 41 13.9658 38.7055 13.9658 35.875V23.0723H16.584ZM20.8145 23.792L23.3828 26.3867H30.3662V27.9307H23.2637L17.3018 21.9785L17.1143 21.791H13.9658V20.4932H17.542L20.8145 23.792ZM19.6582 14.542L25.4238 20.3076H30.3662V21.7734H25.2988L19.4053 15.8799H13.9658V14.542H19.6582ZM25.2412 0C28.0715 0.000219893 30.3662 2.29469 30.3662 5.125V19.0264H25.9551L20.1895 13.2607H13.9658V5.125C13.9658 2.29456 16.2604 0 19.0908 0H25.2412Z" fill="#80D1FF"/>
<path d="M41.3209 18.45L35.1068 24.0875H24.2162L18.5146 18.3219L7.30366 18.45L3.01147 22.8062" stroke="#80D1FF" stroke-width="2.5625"/>
<path d="M2.5625 20.6926C3.94235 20.6926 5.06055 21.8108 5.06055 23.1907C5.06055 24.5705 3.94235 25.6887 2.5625 25.6887C1.18265 25.6887 0.0644531 24.5705 0.0644531 23.1907C0.0644533 21.8108 1.18265 20.6926 2.5625 20.6926Z" fill="#80D1FF" stroke="#80D1FF" stroke-width="0.128125"/>
<circle cx="42.0255" cy="18.0657" r="2.49844" fill="#80D1FF" stroke="#80D1FF" stroke-width="0.128125"/>
</svg>
