<svg width="138" height="35" viewBox="0 0 138 35" fill="none" xmlns="http://www.w3.org/2000/svg">
<path d="M54.4595 16.7133C54.4595 18.2836 54.1654 19.6285 53.5771 20.7481C52.9936 21.8629 52.1966 22.7168 51.1862 23.3098C50.1805 23.9028 49.0395 24.1993 47.7634 24.1993C46.4873 24.1993 45.344 23.9028 44.3336 23.3098C43.3279 22.712 42.5309 21.8558 41.9426 20.7409C41.3591 19.6214 41.0674 18.2788 41.0674 16.7133C41.0674 15.1431 41.3591 13.8006 41.9426 12.6858C42.5309 11.5662 43.3279 10.7099 44.3336 10.1169C45.344 9.52393 46.4873 9.22743 47.7634 9.22743C49.0395 9.22743 50.1805 9.52393 51.1862 10.1169C52.1966 10.7099 52.9936 11.5662 53.5771 12.6858C54.1654 13.8006 54.4595 15.1431 54.4595 16.7133ZM51.8053 16.7133C51.8053 15.608 51.6321 14.6758 51.2858 13.9168C50.9442 13.153 50.4698 12.5766 49.8626 12.1876C49.2554 11.7939 48.5557 11.597 47.7634 11.597C46.9712 11.597 46.2715 11.7939 45.6642 12.1876C45.057 12.5766 44.5803 13.153 44.234 13.9168C43.8924 14.6758 43.7216 15.608 43.7216 16.7133C43.7216 17.8187 43.8924 18.7532 44.234 19.517C44.5803 20.276 45.057 20.8524 45.6642 21.2462C46.2715 21.6352 46.9712 21.8297 47.7634 21.8297C48.5557 21.8297 49.2554 21.6352 49.8626 21.2462C50.4698 20.8524 50.9442 20.276 51.2858 19.517C51.6321 18.7532 51.8053 17.8187 51.8053 16.7133ZM61.6092 24.2135C60.5181 24.2135 59.5811 23.9739 58.7984 23.4948C58.0204 23.0157 57.4203 22.3539 56.9981 21.5095C56.5806 20.6603 56.3719 19.683 56.3719 18.5777C56.3719 17.4676 56.5854 16.488 57.0123 15.6388C57.4393 14.7849 58.0417 14.1208 58.8197 13.6464C59.6025 13.1673 60.5276 12.9277 61.5949 12.9277C62.4821 12.9277 63.2672 13.0914 63.9503 13.4187C64.6382 13.7413 65.1861 14.1991 65.5941 14.7921C66.002 15.3803 66.2345 16.0682 66.2914 16.8557H63.8293C63.7297 16.3291 63.4925 15.8903 63.1177 15.5392C62.7477 15.1834 62.252 15.0055 61.6305 15.0055C61.1039 15.0055 60.6414 15.1479 60.2429 15.4325C59.8444 15.7124 59.5337 16.1156 59.3107 16.6422C59.0925 17.1688 58.9834 17.7997 58.9834 18.535C58.9834 19.2798 59.0925 19.9202 59.3107 20.4563C59.529 20.9876 59.8349 21.398 60.2287 21.6874C60.6272 21.972 61.0945 22.1143 61.6305 22.1143C62.01 22.1143 62.3492 22.0431 62.6481 21.9008C62.9517 21.7538 63.2055 21.5427 63.4095 21.2675C63.6135 20.9924 63.7534 20.6579 63.8293 20.2642H66.2914C66.2298 21.0374 66.002 21.7229 65.6083 22.3207C65.2146 22.9137 64.6785 23.3786 64.0001 23.7154C63.3217 24.0475 62.5247 24.2135 61.6092 24.2135ZM75.3731 19.4032V13.07H77.949V24H75.4514V22.0574H75.3375C75.0908 22.6693 74.6852 23.1698 74.1207 23.5588C73.5609 23.9478 72.8707 24.1423 72.05 24.1423C71.3336 24.1423 70.7003 23.9834 70.15 23.6656C69.6045 23.343 69.1775 22.8757 68.8692 22.2637C68.5608 21.647 68.4066 20.9022 68.4066 20.0293V13.07H70.9826V19.6309C70.9826 20.3235 71.1723 20.8738 71.5518 21.2817C71.9314 21.6897 72.4295 21.8937 73.0462 21.8937C73.4257 21.8937 73.7934 21.8012 74.1491 21.6162C74.5049 21.4312 74.7967 21.156 75.0244 20.7907C75.2569 20.4207 75.3731 19.9582 75.3731 19.4032ZM80.5979 24V13.07H83.0956V14.8917H83.2095C83.4087 14.2607 83.7503 13.7745 84.2341 13.4329C84.7228 13.0866 85.2802 12.9135 85.9064 12.9135C86.0487 12.9135 86.2076 12.9206 86.3831 12.9348C86.5634 12.9443 86.7128 12.9609 86.8314 12.9846V15.3542C86.7223 15.3163 86.5492 15.2831 86.312 15.2546C86.0795 15.2214 85.8542 15.2048 85.636 15.2048C85.1663 15.2048 84.7441 15.3068 84.3693 15.5108C83.9993 15.71 83.7076 15.9875 83.4941 16.3433C83.2806 16.6991 83.1739 17.1095 83.1739 17.5744V24H80.5979ZM91.4923 24.2206C90.7997 24.2206 90.1759 24.0973 89.6209 23.8506C89.0706 23.5992 88.6341 23.2291 88.3115 22.7405C87.9937 22.2519 87.8348 21.6494 87.8348 20.9331C87.8348 20.3164 87.9486 19.8064 88.1763 19.4032C88.404 18.9999 88.7148 18.6773 89.1085 18.4354C89.5023 18.1935 89.9458 18.0108 90.4392 17.8875C90.9373 17.7594 91.452 17.6669 91.9833 17.6099C92.6238 17.5435 93.1432 17.4842 93.5417 17.4321C93.9402 17.3751 94.2296 17.2897 94.4099 17.1759C94.5949 17.0573 94.6874 16.8746 94.6874 16.628V16.5853C94.6874 16.0492 94.5285 15.6341 94.2106 15.34C93.8928 15.0459 93.435 14.8988 92.8372 14.8988C92.2063 14.8988 91.7058 15.0364 91.3358 15.3115C90.9705 15.5867 90.7238 15.9116 90.5957 16.2864L88.1906 15.9448C88.3803 15.2807 88.6934 14.7256 89.1299 14.2797C89.5663 13.829 90.1 13.4922 90.7309 13.2693C91.3619 13.0415 92.0592 12.9277 92.823 12.9277C93.3496 12.9277 93.8738 12.9894 94.3956 13.1127C94.9175 13.236 95.3942 13.44 95.8259 13.7247C96.2576 14.0046 96.6039 14.3865 96.8648 14.8703C97.1305 15.3542 97.2633 15.9591 97.2633 16.6849V24H94.787V22.4986H94.7016C94.5451 22.8022 94.3245 23.0868 94.0398 23.3525C93.7599 23.6134 93.4065 23.8245 92.9796 23.9858C92.5574 24.1423 92.0616 24.2206 91.4923 24.2206ZM92.1612 22.3278C92.6783 22.3278 93.1266 22.2258 93.5061 22.0218C93.8857 21.8131 94.1774 21.5379 94.3814 21.1964C94.5901 20.8548 94.6945 20.4824 94.6945 20.0792V18.7912C94.6138 18.8576 94.4763 18.9193 94.2818 18.9762C94.092 19.0331 93.8785 19.0829 93.6413 19.1256C93.4041 19.1683 93.1693 19.2063 92.9369 19.2395C92.7044 19.2727 92.5028 19.3012 92.332 19.3249C91.9478 19.3771 91.6038 19.4625 91.3002 19.581C90.9966 19.6996 90.757 19.8657 90.5815 20.0792C90.406 20.2879 90.3182 20.5583 90.3182 20.8904C90.3182 21.3648 90.4914 21.7229 90.8377 21.9649C91.184 22.2068 91.6252 22.3278 92.1612 22.3278ZM105.055 24.1993C104.031 24.1993 103.12 24.0237 102.323 23.6727C101.53 23.3216 100.904 22.833 100.444 22.2068C99.984 21.5806 99.7397 20.8572 99.7112 20.0365H102.387C102.41 20.4302 102.541 20.7741 102.778 21.0683C103.015 21.3576 103.331 21.583 103.725 21.7443C104.118 21.9056 104.559 21.9862 105.048 21.9862C105.57 21.9862 106.032 21.8961 106.436 21.7158C106.839 21.5308 107.154 21.2746 107.382 20.9473C107.61 20.62 107.721 20.2428 107.717 19.8159C107.721 19.3747 107.607 18.9857 107.375 18.6489C107.143 18.312 106.806 18.0488 106.365 17.859C105.928 17.6692 105.402 17.5744 104.785 17.5744H103.497V15.5392H104.785C105.292 15.5392 105.736 15.4515 106.115 15.2759C106.5 15.1004 106.801 14.8537 107.019 14.5359C107.237 14.2133 107.344 13.8409 107.339 13.4187C107.344 13.006 107.252 12.6478 107.062 12.3442C106.877 12.0358 106.614 11.7963 106.272 11.6255C105.935 11.4547 105.539 11.3693 105.084 11.3693C104.638 11.3693 104.225 11.45 103.846 11.6113C103.466 11.7725 103.16 12.0026 102.928 12.3015C102.695 12.5956 102.572 12.9467 102.558 13.3546H100.017C100.036 12.5387 100.271 11.8224 100.722 11.2056C101.177 10.5842 101.784 10.1003 102.543 9.75401C103.302 9.40296 104.154 9.22743 105.098 9.22743C106.07 9.22743 106.915 9.41007 107.631 9.77536C108.352 10.1359 108.91 10.6221 109.303 11.2341C109.697 11.8461 109.894 12.5221 109.894 13.2621C109.899 14.0828 109.657 14.7707 109.168 15.3257C108.684 15.8808 108.049 16.2437 107.261 16.4145V16.5283C108.286 16.6707 109.071 17.0502 109.617 17.6669C110.167 18.2788 110.44 19.0402 110.435 19.9511C110.435 20.767 110.202 21.4976 109.737 22.1428C109.277 22.7832 108.642 23.2861 107.83 23.6513C107.024 24.0166 106.099 24.1993 105.055 24.1993ZM118.214 24.1993C117.517 24.1945 116.836 24.0735 116.172 23.8363C115.508 23.5944 114.91 23.203 114.379 22.6622C113.847 22.1167 113.425 21.3932 113.112 20.4919C112.799 19.5858 112.645 18.4639 112.65 17.1261C112.65 15.8784 112.782 14.766 113.048 13.7887C113.314 12.8115 113.696 11.986 114.194 11.3124C114.692 10.634 115.292 10.1169 115.994 9.76112C116.701 9.40533 117.491 9.22743 118.364 9.22743C119.279 9.22743 120.091 9.4077 120.797 9.76824C121.509 10.1288 122.083 10.6221 122.519 11.2483C122.956 11.8698 123.226 12.5719 123.331 13.3546H120.733C120.6 12.7949 120.328 12.3489 119.915 12.0169C119.507 11.68 118.99 11.5116 118.364 11.5116C117.353 11.5116 116.575 11.9504 116.03 12.8281C115.489 13.7057 115.216 14.9107 115.211 16.4429H115.311C115.543 16.0255 115.845 15.6673 116.215 15.3684C116.585 15.0696 117.002 14.8395 117.467 14.6782C117.937 14.5122 118.433 14.4291 118.954 14.4291C119.808 14.4291 120.574 14.6331 121.253 15.0411C121.936 15.4491 122.477 16.0112 122.875 16.7276C123.274 17.4392 123.471 18.2551 123.466 19.1754C123.471 20.1337 123.252 20.9947 122.811 21.7585C122.37 22.5175 121.756 23.1153 120.968 23.5517C120.181 23.9882 119.263 24.204 118.214 24.1993ZM118.2 22.0645C118.717 22.0645 119.18 21.9388 119.588 21.6874C119.996 21.4359 120.318 21.0967 120.555 20.6698C120.793 20.2428 120.909 19.7637 120.904 19.2324C120.909 18.7105 120.795 18.2385 120.563 17.8163C120.335 17.3941 120.019 17.0597 119.616 16.813C119.213 16.5663 118.753 16.4429 118.236 16.4429C117.851 16.4429 117.493 16.5165 117.161 16.6635C116.829 16.8106 116.54 17.0146 116.293 17.2755C116.046 17.5317 115.852 17.8305 115.709 18.1721C115.572 18.5089 115.501 18.8695 115.496 19.2537C115.501 19.7613 115.619 20.2286 115.852 20.6555C116.084 21.0825 116.404 21.4241 116.812 21.6802C117.22 21.9364 117.683 22.0645 118.2 22.0645ZM131.258 24.2775C130.086 24.2775 129.08 23.981 128.241 23.388C127.406 22.7903 126.763 21.9293 126.312 20.805C125.866 19.6759 125.643 18.3168 125.643 16.7276C125.648 15.1384 125.873 13.7863 126.319 12.6715C126.77 11.552 127.413 10.698 128.248 10.1098C129.087 9.52156 130.091 9.22743 131.258 9.22743C132.425 9.22743 133.428 9.52156 134.268 10.1098C135.107 10.698 135.75 11.552 136.196 12.6715C136.647 13.7911 136.872 15.1431 136.872 16.7276C136.872 18.3215 136.647 19.683 136.196 20.8121C135.75 21.9364 135.107 22.7951 134.268 23.388C133.433 23.981 132.429 24.2775 131.258 24.2775ZM131.258 22.0503C132.169 22.0503 132.887 21.602 133.414 20.7054C133.945 19.804 134.211 18.4781 134.211 16.7276C134.211 15.5701 134.09 14.5976 133.848 13.8101C133.606 13.0226 133.264 12.4296 132.823 12.0311C132.382 11.6279 131.86 11.4262 131.258 11.4262C130.352 11.4262 129.635 11.8769 129.109 12.7783C128.582 13.6749 128.316 14.9913 128.312 16.7276C128.307 17.8898 128.423 18.8671 128.66 19.6593C128.902 20.4516 129.244 21.0493 129.685 21.4525C130.126 21.851 130.65 22.0503 131.258 22.0503Z" fill="#003678"/>
<path d="M13.761 19.1465L18.7092 24.0859L18.8655 24.2412H25.1985V29.7695C25.1985 32.1182 23.2942 34.0223 20.9456 34.0225H15.842C13.4933 34.0225 11.5891 32.1183 11.5891 29.7695V19.1465H13.761ZM17.303 19.7754L19.4036 21.8965H25.1985V23.1787H19.3049L14.3577 18.2383L14.2014 18.083H11.5891V17.0049H14.5549L17.303 19.7754ZM16.3127 12.0674L21.0979 16.8525H25.1985V18.0684H20.9934L16.1028 13.1777H11.5891V12.0674H16.3127ZM20.9456 0C23.2942 0.000135896 25.1985 1.90424 25.1985 4.25293V15.7891H21.5383L16.9094 11.1602L16.7532 11.0049H11.5891V4.25293C11.5891 1.90416 13.4933 0 15.842 0H20.9456Z" fill="#003678"/>
<path d="M34.2889 15.3102L29.1324 19.9883H20.0951L15.3638 15.2039L6.06077 15.3102L2.49902 18.9251" stroke="#003678" stroke-width="2.12642"/>
<path d="M2.12598 17.1704C3.27086 17.1704 4.19898 18.0989 4.19922 19.2437C4.19922 20.3887 3.271 21.3169 2.12598 21.3169C0.981151 21.3167 0.0527344 20.3886 0.0527344 19.2437C0.0529719 18.099 0.981297 17.1707 2.12598 17.1704Z" fill="#003678" stroke="#003678" stroke-width="0.106321"/>
<circle cx="34.8736" cy="14.9913" r="2.07326" fill="#003678" stroke="#003678" stroke-width="0.106321"/>
</svg>
