<svg width="45" height="41" viewBox="0 0 45 41" fill="none" xmlns="http://www.w3.org/2000/svg">
<path d="M16.584 23.0723L22.5459 29.0254L22.7334 29.2119H30.3662V35.875C30.3662 38.7053 28.0715 40.9998 25.2412 41H19.0908C16.2604 41 13.9658 38.7055 13.9658 35.875V23.0723H16.584ZM20.8145 23.792L23.3828 26.3867H30.3662V27.9307H23.2637L17.3018 21.9785L17.1143 21.791H13.9658V20.4932H17.542L20.8145 23.792ZM19.6582 14.542L25.4238 20.3076H30.3662V21.7734H25.2988L19.4053 15.8799H13.9658V14.542H19.6582ZM25.2412 0C28.0715 0.000219893 30.3662 2.29469 30.3662 5.125V19.0264H25.9551L20.1895 13.2607H13.9658V5.125C13.9658 2.29456 16.2604 0 19.0908 0H25.2412Z" fill="#80D1FF"/>
<path d="M41.3209 18.45L35.1068 24.0875H24.2162L18.5146 18.3219L7.30366 18.45L3.01147 22.8062" stroke="#80D1FF" stroke-width="2.5625"/>
<path d="M2.5625 20.6926C3.94235 20.6926 5.06055 21.8108 5.06055 23.1907C5.06055 24.5705 3.94235 25.6887 2.5625 25.6887C1.18265 25.6887 0.0644531 24.5705 0.0644531 23.1907C0.0644533 21.8108 1.18265 20.6926 2.5625 20.6926Z" fill="#80D1FF" stroke="#80D1FF" stroke-width="0.128125"/>
<circle cx="42.0255" cy="18.0657" r="2.49844" fill="#80D1FF" stroke="#80D1FF" stroke-width="0.128125"/>
</svg>
