<svg width="30" height="28" viewBox="0 0 30 28" fill="none" xmlns="http://www.w3.org/2000/svg">
<path d="M27.8019 12.4137L23.6209 16.2067H16.2933L12.4572 12.3275L4.91415 12.4137L2.02625 15.3447" stroke="#003678" stroke-width="1.72412"/>
<path d="M1.72461 13.9222C2.65279 13.9224 3.40527 14.6756 3.40527 15.6038C3.40501 16.5318 2.65262 17.2842 1.72461 17.2845C0.796371 17.2845 0.0432324 16.532 0.0429688 15.6038C0.0429688 14.6754 0.796209 13.9222 1.72461 13.9222Z" fill="#003678" stroke="#003678" stroke-width="0.0862061"/>
<circle cx="28.2759" cy="12.1551" r="1.68102" fill="#003678" stroke="#003678" stroke-width="0.0862061"/>
<path d="M11.1582 15.5234L15.1699 19.5293L15.2959 19.6553H20.4307V24.1377C20.4307 26.0421 18.8868 27.5859 16.9824 27.5859H12.8447C10.9403 27.5859 9.39648 26.0421 9.39648 24.1377V15.5234H11.1582ZM13.4043 15.4023L15.7324 17.7529H20.4307V18.793H15.6533L11.6406 14.7881L11.5146 14.6621H9.39648V13.7871H11.8018L13.4043 15.4023ZM13.2266 9.78418L16.9805 13.5371L17.1064 13.6641H20.4307V14.6494H17.0225L13.0557 10.6836H9.39648V9.78418H13.2266ZM16.9824 0C18.8868 0 20.4306 1.54385 20.4307 3.44824V12.8018H17.4639L13.71 9.04883L13.584 8.92285H9.39648V3.44824C9.3965 1.54385 10.9403 0 12.8447 0H16.9824Z" fill="#003678"/>
</svg>
